<?xml version="1.0" encoding="UTF-8"?><svg id="a" xmlns="http://www.w3.org/2000/svg" xmlns:xlink="http://www.w3.org/1999/xlink" viewBox="0 0 461.8 461.8"><defs><style>.c,.d,.e,.f{stroke-miterlimit:10;}.c,.d,.f{stroke:#231f20;}.c,.e{fill:none;}.d{fill:#404040;}.e{stroke:#282828;}.g{fill:#333;}.h{fill:#383838;}.f{fill:url(#b);}</style><radialGradient id="b" cx="230.9" cy="230.9" fx="230.9" fy="230.9" r="140.26" gradientUnits="userSpaceOnUse"><stop offset="0" stop-color="#b095ca"/><stop offset="1" stop-color="#639"/></radialGradient></defs><circle class="c" cx="230.9" cy="230.9" r="207.36"/><rect class="f" x="215.69" y="33.13" width="30.42" height="395.54" rx="11.49" ry="11.49"/><path class="d" d="m230.9.5C103.65.5.5,103.65.5,230.9s103.15,230.4,230.4,230.4,230.4-103.15,230.4-230.4S358.15.5,230.9.5Zm0,437.76c-114.52,0-207.36-92.84-207.36-207.36S116.38,23.54,230.9,23.54s207.36,92.84,207.36,207.36-92.84,207.36-207.36,207.36Z"/><path class="h" d="m438.26,230.9c0,114.52-92.84,207.36-207.36,207.36S23.54,345.42,23.54,230.9l192.15,31.97v154.31c0,6.34,5.15,11.49,11.49,11.49h7.44c6.34,0,11.49-5.15,11.49-11.49v-154.31l192.15-31.97Z"/><path class="g" d="m246.11,262.87V44.62c0-6.34-5.15-11.49-11.49-11.49h-7.44c-6.34,0-11.49,5.15-11.49,11.49v218.25l-192.15-31.97C23.54,116.38,116.38,23.54,230.9,23.54s207.36,92.84,207.36,207.36l-192.15,31.97Z"/><rect class="c" x="215.69" y="33.13" width="30.42" height="395.54" rx="11.49" ry="11.49"/><line class="e" x1="23.54" y1="230.9" x2="215.69" y2="262.87"/><line class="e" x1="246.11" y1="262.87" x2="438.26" y2="230.9"/></svg>